<?xml version="1.0" encoding="UTF-8" standalone="no"?>
<svg
   xmlns:dc="http://purl.org/dc/elements/1.1/"
   xmlns:cc="http://creativecommons.org/ns#"
   xmlns:rdf="http://www.w3.org/1999/02/22-rdf-syntax-ns#"
   xmlns:svg="http://www.w3.org/2000/svg"
   xmlns="http://www.w3.org/2000/svg"
   id="svg8"
   version="1.1"
   viewBox="0 0 100 100"
   height="100mm"
   width="100mm">
  <defs
     id="defs2" />
  <metadata
     id="metadata5">
    <rdf:RDF>
      <cc:Work
         rdf:about="">
        <dc:format>image/svg+xml</dc:format>
        <dc:type
           rdf:resource="http://purl.org/dc/dcmitype/StillImage" />
        <dc:title></dc:title>
      </cc:Work>
    </rdf:RDF>
  </metadata>
  <g
     transform="translate(0,-197)"
     id="layer1">
    <path
       d="m 83.217956,251.98552 c -0.561838,5.9848 -49.736996,28.53729 -54.639064,25.05833 -4.902068,-3.47897 0.154475,-57.34215 5.618382,-59.84798 5.463906,-2.50584 49.58252,28.80485 49.020682,34.78965 z"
       id="path4516"
       style="fill:#5cfd00;fill-opacity:1;stroke:none;stroke-width:1.39616203;stroke-linecap:round;stroke-linejoin:round;stroke-miterlimit:4;stroke-dasharray:none;stroke-dashoffset:0;stroke-opacity:0.95789472" />
    <path
       transform="rotate(90,82.710371,215.95338)"
       d="m 149.23353,253.32187 c -0.56184,5.9848 -49.736995,28.53729 -54.639063,25.05833 -4.902068,-3.47897 0.154476,-57.34215 5.618383,-59.84798 5.46391,-2.50584 49.58252,28.80485 49.02068,34.78965 z"
       id="path4516-4"
       style="fill:#5cfd00;fill-opacity:0.39555556;stroke:none;stroke-width:1.39616203;stroke-linecap:round;stroke-linejoin:round;stroke-miterlimit:4;stroke-dasharray:none;stroke-dashoffset:0;stroke-opacity:0.95789472" />
    <path
       transform="scale(-1)"
       d="m -13.781781,-244.33319 c -0.561838,5.9848 -49.736996,28.53729 -54.639064,25.05833 -4.902068,-3.47897 0.154476,-57.34215 5.618382,-59.84798 5.463906,-2.50584 49.58252,28.80485 49.020682,34.78965 z"
       id="path4516-4-0"
       style="fill:#5cfd00;fill-opacity:0.15555556;stroke:none;stroke-width:1.39616203;stroke-linecap:round;stroke-linejoin:round;stroke-miterlimit:4;stroke-dasharray:none;stroke-dashoffset:0;stroke-opacity:0.95789472" />
    <circle
       r="42.763123"
       cy="248.52654"
       cx="49.51083"
       id="path4524-5-3"
       style="fill:none;fill-opacity:1;stroke:#727272;stroke-width:2.64583325;stroke-linecap:round;stroke-linejoin:round;stroke-miterlimit:4;stroke-dasharray:none;stroke-dashoffset:0;stroke-opacity:1" />
  </g>
</svg>
